# xmcd
#
# Track frame offsets:
# 150
# 14298
# 34687
# 49803
# 67408
#
# Disc length: 1098 seconds
#
#
# Revision: 0
# Processed by: cddbd v1.5.2PL0 Copyright (c) Steve Scherf et al.
# Submitted via: FreeRIP 2.945 
#
DISCID=41044805
DTITLE=Τσιτσάνης - Τροαγούδια του Τσιτσάνη- Ελευθεροτυπία
DYEAR=1900
DGENRE=Ρεμπέτικα
TTITLE0=Κλαμμένη ήρθες μια βραδιά
TTITLE1=Θα κάνμω ντου βρε πονηρή
TTITLE2=η καρδιά μου θα γίνει χρυσή
TTITLE3=μ΄έχουν ξεγελάσει δυο μαύρα μάτια
TTITLE4=Απόψε στις ακρογιαλιές
EXTD=
EXTT0=
EXTT1=
EXTT2=
EXTT3=
EXTT4=
PLAYORDER=
